<svg width="272" height="193" viewBox="0 0 272 193" fill="none" xmlns="http://www.w3.org/2000/svg">
<g opacity="0.6">
<rect width="272" height="193" rx="8" fill="#315D87"/>
<mask id="mask0_1_781" style="mask-type:alpha" maskUnits="userSpaceOnUse" x="0" y="0" width="272" height="193">
<rect width="272" height="193" rx="8" fill="#315D87"/>
</mask>
<g mask="url(#mask0_1_781)">
<line x1="4.5" y1="246" x2="4.5" y2="182" stroke="white" stroke-width="3"/>
<line x1="4.5" y1="246" x2="4.5" y2="182" stroke="white" stroke-width="3"/>
<line x1="4.5" y1="246" x2="4.5" y2="182" stroke="white" stroke-width="3"/>
<line x1="14.5" y1="238" x2="14.5" y2="174" stroke="white" stroke-width="3"/>
<line x1="14.5" y1="238" x2="14.5" y2="174" stroke="white" stroke-width="3"/>
<line x1="14.5" y1="238" x2="14.5" y2="174" stroke="white" stroke-width="3"/>
<line x1="24.5" y1="228" x2="24.5" y2="164" stroke="white" stroke-width="3"/>
<line x1="24.5" y1="228" x2="24.5" y2="164" stroke="white" stroke-width="3"/>
<line x1="24.5" y1="228" x2="24.5" y2="164" stroke="white" stroke-width="3"/>
<line x1="34.5" y1="231" x2="34.5" y2="167" stroke="white" stroke-width="3"/>
<line x1="34.5" y1="231" x2="34.5" y2="167" stroke="white" stroke-width="3"/>
<line x1="34.5" y1="231" x2="34.5" y2="167" stroke="white" stroke-width="3"/>
<line x1="44.5" y1="231" x2="44.5" y2="167" stroke="white" stroke-width="3"/>
<line x1="44.5" y1="231" x2="44.5" y2="167" stroke="white" stroke-width="3"/>
<line x1="44.5" y1="231" x2="44.5" y2="167" stroke="white" stroke-width="3"/>
<line x1="54.5" y1="231" x2="54.5" y2="167" stroke="white" stroke-width="3"/>
<line x1="54.5" y1="231" x2="54.5" y2="167" stroke="white" stroke-width="3"/>
<line x1="54.5" y1="231" x2="54.5" y2="167" stroke="white" stroke-width="3"/>
<line x1="64.5" y1="231" x2="64.5" y2="167" stroke="white" stroke-width="3"/>
<line x1="64.5" y1="231" x2="64.5" y2="167" stroke="white" stroke-width="3"/>
<line x1="64.5" y1="231" x2="64.5" y2="167" stroke="white" stroke-width="3"/>
<line x1="74.5" y1="238" x2="74.5" y2="174" stroke="white" stroke-width="3"/>
<line x1="74.5" y1="238" x2="74.5" y2="174" stroke="white" stroke-width="3"/>
<line x1="74.5" y1="238" x2="74.5" y2="174" stroke="white" stroke-width="3"/>
<line x1="84.5" y1="245" x2="84.5" y2="181" stroke="white" stroke-width="3"/>
<line x1="84.5" y1="245" x2="84.5" y2="181" stroke="white" stroke-width="3"/>
<line x1="84.5" y1="245" x2="84.5" y2="181" stroke="white" stroke-width="3"/>
<line x1="94.5" y1="255" x2="94.5" y2="191" stroke="white" stroke-width="3"/>
<line x1="94.5" y1="255" x2="94.5" y2="191" stroke="white" stroke-width="3"/>
<line x1="94.5" y1="255" x2="94.5" y2="191" stroke="white" stroke-width="3"/>
<line x1="104.5" y1="245" x2="104.5" y2="181" stroke="white" stroke-width="3"/>
<line x1="104.5" y1="245" x2="104.5" y2="181" stroke="white" stroke-width="3"/>
<line x1="104.5" y1="245" x2="104.5" y2="181" stroke="white" stroke-width="3"/>
<line x1="114.5" y1="238" x2="114.5" y2="174" stroke="white" stroke-width="3"/>
<line x1="114.5" y1="238" x2="114.5" y2="174" stroke="white" stroke-width="3"/>
<line x1="114.5" y1="238" x2="114.5" y2="174" stroke="white" stroke-width="3"/>
<line x1="124.5" y1="231" x2="124.5" y2="167" stroke="white" stroke-width="3"/>
<line x1="124.5" y1="231" x2="124.5" y2="167" stroke="white" stroke-width="3"/>
<line x1="124.5" y1="231" x2="124.5" y2="167" stroke="white" stroke-width="3"/>
<line x1="134.5" y1="224" x2="134.5" y2="160" stroke="white" stroke-width="3"/>
<line x1="134.5" y1="224" x2="134.5" y2="160" stroke="white" stroke-width="3"/>
<line x1="134.5" y1="224" x2="134.5" y2="160" stroke="white" stroke-width="3"/>
<line x1="144.5" y1="217" x2="144.5" y2="153" stroke="white" stroke-width="3"/>
<line x1="144.5" y1="217" x2="144.5" y2="153" stroke="white" stroke-width="3"/>
<line x1="144.5" y1="217" x2="144.5" y2="153" stroke="white" stroke-width="3"/>
<line x1="154.5" y1="210" x2="154.5" y2="146" stroke="white" stroke-width="3"/>
<line x1="154.5" y1="210" x2="154.5" y2="146" stroke="white" stroke-width="3"/>
<line x1="154.5" y1="210" x2="154.5" y2="146" stroke="white" stroke-width="3"/>
<line x1="164.5" y1="210" x2="164.5" y2="146" stroke="white" stroke-width="3"/>
<line x1="164.5" y1="210" x2="164.5" y2="146" stroke="white" stroke-width="3"/>
<line x1="164.5" y1="210" x2="164.5" y2="146" stroke="white" stroke-width="3"/>
<line x1="174.5" y1="210" x2="174.5" y2="146" stroke="white" stroke-width="3"/>
<line x1="174.5" y1="210" x2="174.5" y2="146" stroke="white" stroke-width="3"/>
<line x1="174.5" y1="210" x2="174.5" y2="146" stroke="white" stroke-width="3"/>
<line x1="184.5" y1="210" x2="184.5" y2="146" stroke="white" stroke-width="3"/>
<line x1="184.5" y1="210" x2="184.5" y2="146" stroke="white" stroke-width="3"/>
<line x1="184.5" y1="210" x2="184.5" y2="146" stroke="white" stroke-width="3"/>
<line x1="194.5" y1="217" x2="194.5" y2="153" stroke="white" stroke-width="3"/>
<line x1="194.5" y1="217" x2="194.5" y2="153" stroke="white" stroke-width="3"/>
<line x1="194.5" y1="217" x2="194.5" y2="153" stroke="white" stroke-width="3"/>
<line x1="204.5" y1="224" x2="204.5" y2="160" stroke="white" stroke-width="3"/>
<line x1="204.5" y1="224" x2="204.5" y2="160" stroke="white" stroke-width="3"/>
<line x1="204.5" y1="224" x2="204.5" y2="160" stroke="white" stroke-width="3"/>
<line x1="214.5" y1="224" x2="214.5" y2="160" stroke="white" stroke-width="3"/>
<line x1="214.5" y1="224" x2="214.5" y2="160" stroke="white" stroke-width="3"/>
<line x1="214.5" y1="224" x2="214.5" y2="160" stroke="white" stroke-width="3"/>
<line x1="224.5" y1="217" x2="224.5" y2="153" stroke="white" stroke-width="3"/>
<line x1="224.5" y1="217" x2="224.5" y2="153" stroke="white" stroke-width="3"/>
<line x1="224.5" y1="217" x2="224.5" y2="153" stroke="white" stroke-width="3"/>
<line x1="234.5" y1="210" x2="234.5" y2="146" stroke="white" stroke-width="3"/>
<line x1="234.5" y1="210" x2="234.5" y2="146" stroke="white" stroke-width="3"/>
<line x1="234.5" y1="210" x2="234.5" y2="146" stroke="white" stroke-width="3"/>
<line x1="244.5" y1="203" x2="244.5" y2="139" stroke="white" stroke-width="3"/>
<line x1="244.5" y1="203" x2="244.5" y2="139" stroke="white" stroke-width="3"/>
<line x1="244.5" y1="203" x2="244.5" y2="139" stroke="white" stroke-width="3"/>
<line x1="254.5" y1="196" x2="254.5" y2="132" stroke="white" stroke-width="3"/>
<line x1="254.5" y1="196" x2="254.5" y2="132" stroke="white" stroke-width="3"/>
<line x1="254.5" y1="196" x2="254.5" y2="132" stroke="white" stroke-width="3"/>
<line x1="264.5" y1="189" x2="264.5" y2="125" stroke="white" stroke-width="3"/>
<line x1="264.5" y1="189" x2="264.5" y2="125" stroke="white" stroke-width="3"/>
<line x1="264.5" y1="189" x2="264.5" y2="125" stroke="white" stroke-width="3"/>
<line x1="23" y1="249" x2="23" y2="185" stroke="white" stroke-width="6"/>
<line x1="23" y1="249" x2="23" y2="185" stroke="white" stroke-width="6"/>
<line x1="23" y1="249" x2="23" y2="185" stroke="white" stroke-width="6"/>
<line x1="33" y1="252" x2="33" y2="188" stroke="white" stroke-width="6"/>
<line x1="33" y1="252" x2="33" y2="188" stroke="white" stroke-width="6"/>
<line x1="33" y1="252" x2="33" y2="188" stroke="white" stroke-width="6"/>
<line x1="43" y1="252" x2="43" y2="188" stroke="white" stroke-width="6"/>
<line x1="43" y1="252" x2="43" y2="188" stroke="white" stroke-width="6"/>
<line x1="43" y1="252" x2="43" y2="188" stroke="white" stroke-width="6"/>
<line x1="53" y1="252" x2="53" y2="188" stroke="white" stroke-width="6"/>
<line x1="53" y1="252" x2="53" y2="188" stroke="white" stroke-width="6"/>
<line x1="53" y1="252" x2="53" y2="188" stroke="white" stroke-width="6"/>
<line x1="63" y1="252" x2="63" y2="188" stroke="white" stroke-width="6"/>
<line x1="63" y1="252" x2="63" y2="188" stroke="white" stroke-width="6"/>
<line x1="63" y1="252" x2="63" y2="188" stroke="white" stroke-width="6"/>
<line x1="123" y1="252" x2="123" y2="188" stroke="white" stroke-width="6"/>
<line x1="123" y1="252" x2="123" y2="188" stroke="white" stroke-width="6"/>
<line x1="123" y1="252" x2="123" y2="188" stroke="white" stroke-width="6"/>
<line x1="133" y1="245" x2="133" y2="181" stroke="white" stroke-width="6"/>
<line x1="133" y1="245" x2="133" y2="181" stroke="white" stroke-width="6"/>
<line x1="133" y1="245" x2="133" y2="181" stroke="white" stroke-width="6"/>
<line x1="143" y1="238" x2="143" y2="174" stroke="white" stroke-width="6"/>
<line x1="143" y1="238" x2="143" y2="174" stroke="white" stroke-width="6"/>
<line x1="143" y1="238" x2="143" y2="174" stroke="white" stroke-width="6"/>
<line x1="153" y1="231" x2="153" y2="167" stroke="white" stroke-width="6"/>
<line x1="153" y1="231" x2="153" y2="167" stroke="white" stroke-width="6"/>
<line x1="153" y1="231" x2="153" y2="167" stroke="white" stroke-width="6"/>
<line x1="163" y1="231" x2="163" y2="167" stroke="white" stroke-width="6"/>
<line x1="163" y1="231" x2="163" y2="167" stroke="white" stroke-width="6"/>
<line x1="163" y1="231" x2="163" y2="167" stroke="white" stroke-width="6"/>
<line x1="173" y1="231" x2="173" y2="167" stroke="white" stroke-width="6"/>
<line x1="173" y1="231" x2="173" y2="167" stroke="white" stroke-width="6"/>
<line x1="173" y1="231" x2="173" y2="167" stroke="white" stroke-width="6"/>
<line x1="183" y1="231" x2="183" y2="167" stroke="white" stroke-width="6"/>
<line x1="183" y1="231" x2="183" y2="167" stroke="white" stroke-width="6"/>
<line x1="183" y1="231" x2="183" y2="167" stroke="white" stroke-width="6"/>
<line x1="193" y1="238" x2="193" y2="174" stroke="white" stroke-width="6"/>
<line x1="193" y1="238" x2="193" y2="174" stroke="white" stroke-width="6"/>
<line x1="193" y1="238" x2="193" y2="174" stroke="white" stroke-width="6"/>
<line x1="203" y1="245" x2="203" y2="181" stroke="white" stroke-width="6"/>
<line x1="203" y1="245" x2="203" y2="181" stroke="white" stroke-width="6"/>
<line x1="203" y1="245" x2="203" y2="181" stroke="white" stroke-width="6"/>
<line x1="213" y1="245" x2="213" y2="181" stroke="white" stroke-width="6"/>
<line x1="213" y1="245" x2="213" y2="181" stroke="white" stroke-width="6"/>
<line x1="213" y1="245" x2="213" y2="181" stroke="white" stroke-width="6"/>
<line x1="223" y1="238" x2="223" y2="174" stroke="white" stroke-width="6"/>
<line x1="223" y1="238" x2="223" y2="174" stroke="white" stroke-width="6"/>
<line x1="223" y1="238" x2="223" y2="174" stroke="white" stroke-width="6"/>
<line x1="233" y1="231" x2="233" y2="167" stroke="white" stroke-width="6"/>
<line x1="233" y1="231" x2="233" y2="167" stroke="white" stroke-width="6"/>
<line x1="233" y1="231" x2="233" y2="167" stroke="white" stroke-width="6"/>
<line x1="243" y1="224" x2="243" y2="160" stroke="white" stroke-width="6"/>
<line x1="243" y1="224" x2="243" y2="160" stroke="white" stroke-width="6"/>
<line x1="243" y1="224" x2="243" y2="160" stroke="white" stroke-width="6"/>
<line x1="253" y1="217" x2="253" y2="153" stroke="white" stroke-width="6"/>
<line x1="253" y1="217" x2="253" y2="153" stroke="white" stroke-width="6"/>
<line x1="253" y1="217" x2="253" y2="153" stroke="white" stroke-width="6"/>
<line x1="263" y1="210" x2="263" y2="146" stroke="white" stroke-width="6"/>
<line x1="263" y1="210" x2="263" y2="146" stroke="white" stroke-width="6"/>
<line x1="263" y1="210" x2="263" y2="146" stroke="white" stroke-width="6"/>
<line x1="273" y1="203" x2="273" y2="139" stroke="white" stroke-width="6"/>
<line x1="273" y1="203" x2="273" y2="139" stroke="white" stroke-width="6"/>
<line x1="273" y1="203" x2="273" y2="139" stroke="white" stroke-width="6"/>
</g>
</g>
</svg>
