<svg width="87" height="88" viewBox="0 0 87 88" fill="none" xmlns="http://www.w3.org/2000/svg">
<g id="img-herbacide">
<path id="Vector" d="M75.0889 33.58V27.247C75.0889 24.49 72.8459 22.247 70.0889 22.247C69.1069 22.247 68.1959 22.542 67.4229 23.033C66.8759 20.864 64.9249 19.247 62.5889 19.247C61.0889 19.247 59.7559 19.925 58.8389 20.975C57.9219 19.925 56.5889 19.247 55.0889 19.247C52.3319 19.247 50.0889 21.49 50.0889 24.247V34.386L35.5348 38.531L40.1339 39.651C43.8499 40.556 47.5309 42.006 50.3129 43.247H33.5219V26.997H31.0219V43.247V44.497V52.108H25.5478V17.163C25.5478 11.235 30.3699 6.413 36.2969 6.413C37.6009 6.413 38.8949 6.653 40.1059 7.11L36.8598 12.304V29.871C36.8598 32.628 39.1028 34.871 41.8598 34.871C44.6168 34.871 46.8589 32.628 46.8589 29.871V18.422C50.2999 18.356 59.0038 16.824 63.7638 3.757L61.4138 2.902C56.1568 17.333 46.2269 15.953 45.8129 15.889L44.3579 15.647V29.872C44.3579 31.25 43.2369 32.372 41.8589 32.372C40.4809 32.372 39.3589 31.25 39.3589 29.872V13.021L46.6679 1.325L44.5489 0L41.4429 4.971C39.8209 4.288 38.0689 3.912 36.2969 3.912C28.9908 3.912 23.0479 9.856 23.0479 17.162V54.607H33.5219V45.746H35.2139V51.913C35.2139 54.67 37.4569 56.913 40.2139 56.913C42.9708 56.913 45.2139 54.67 45.2139 51.913V45.746H60.5388L56.3199 43.403C56.0649 43.261 51.0568 40.499 44.9438 38.449L50.0889 36.984V36.995C50.0889 39.752 52.3319 41.995 55.0889 41.995C56.5889 41.995 57.9219 41.317 58.8389 40.267C59.7559 41.317 61.0889 41.995 62.5889 41.995C64.0889 41.995 65.4219 41.317 66.3389 40.267C67.2559 41.317 68.5889 41.995 70.0889 41.995C72.8459 41.995 75.0889 39.752 75.0889 36.995V36.078H86.6309V33.578H75.0889V33.58ZM42.7139 51.914C42.7139 53.293 41.5919 54.414 40.2139 54.414C38.8359 54.414 37.7139 53.293 37.7139 51.914V45.747H42.7139V51.914ZM55.0889 39.497C53.7099 39.497 52.5889 38.375 52.5889 36.997V24.247C52.5889 22.869 53.7099 21.747 55.0889 21.747C56.4679 21.747 57.5889 22.869 57.5889 24.247V36.997C57.5889 38.375 56.4679 39.497 55.0889 39.497ZM62.5889 39.497C61.2099 39.497 60.0889 38.375 60.0889 36.997V24.247C60.0889 22.869 61.2099 21.747 62.5889 21.747C63.9679 21.747 65.0889 22.869 65.0889 24.247V27.247V36.997C65.0889 38.375 63.9679 39.497 62.5889 39.497ZM72.5889 36.997C72.5889 38.375 71.4679 39.497 70.0889 39.497C68.7099 39.497 67.5889 38.375 67.5889 36.997V27.247C67.5889 25.869 68.7099 24.747 70.0889 24.747C71.4679 24.747 72.5889 25.869 72.5889 27.247V36.997Z" fill="white"/>
<path id="Vector_2" d="M33.5225 20.497H31.0225V24.83H33.5225V20.497Z" fill="white"/>
<path id="Vector_3" d="M29.5479 56.664H27.0479V60.33H29.5479V56.664Z" fill="white"/>
<path id="Vector_4" d="M35.4744 58.9074L32.8818 56.3155L31.1143 58.0835L33.7069 60.6754L35.4744 58.9074Z" fill="white"/>
<path id="Vector_5" d="M25.4777 58.084L23.71 56.3163L21.1177 58.9085L22.8855 60.6763L25.4777 58.084Z" fill="white"/>
<path id="Vector_6" d="M29.5479 62.159H27.0479V65.417H29.5479V62.159Z" fill="white"/>
<path id="Vector_7" d="M33.3652 74.109L34.9142 72.56L33.1462 70.792L31.5972 72.342C30.9492 71.913 30.2182 71.601 29.4312 71.439V69.254H26.9312V71.439C26.1452 71.601 25.4142 71.914 24.7662 72.341L23.2172 70.792L21.4492 72.56L22.9982 74.109C22.5692 74.757 22.2562 75.489 22.0952 76.275H19.9102V78.775H22.0952C22.2572 79.561 22.5692 80.294 22.9982 80.941L21.4502 82.489L23.2182 84.257L24.7662 82.709C25.4142 83.137 26.1452 83.449 26.9312 83.611V85.796H29.4312V83.611C30.2182 83.449 30.9492 83.136 31.5972 82.708L33.1452 84.257L34.9142 82.489L33.3662 80.94C33.7942 80.292 34.1072 79.561 34.2682 78.775H36.4532V76.275H34.2682C34.1072 75.489 33.7942 74.757 33.3652 74.109ZM28.1822 81.237C26.1352 81.237 24.4702 79.572 24.4702 77.525C24.4702 75.478 26.1362 73.813 28.1822 73.813C30.2282 73.813 31.8942 75.478 31.8942 77.525C31.8942 79.572 30.2292 81.237 28.1822 81.237Z" fill="white"/>
<path id="Vector_8" d="M58.8525 65.838L60.4015 64.289L58.6335 62.522L57.0845 64.071C56.4365 63.643 55.7045 63.331 54.9185 63.169V60.984H52.4185V63.169C51.6325 63.331 50.9005 63.643 50.2535 64.071L48.7045 62.522L46.9365 64.29L48.4845 65.838C48.0555 66.486 47.7435 67.218 47.5825 68.005H45.3975V70.505H47.5825C47.7435 71.292 48.0565 72.024 48.4855 72.672L46.9365 74.219L48.7045 75.987L50.2535 74.439C50.9015 74.868 51.6325 75.179 52.4185 75.341V77.526H54.9185V75.341C55.7055 75.179 56.4375 74.866 57.0845 74.438L58.6325 75.987L60.4005 74.219L58.8525 72.67C59.2815 72.023 59.5935 71.291 59.7545 70.505H61.9395V68.005H59.7545C59.5935 67.218 59.2815 66.487 58.8525 65.838ZM53.6695 72.966C51.6225 72.966 49.9565 71.301 49.9565 69.254C49.9565 67.207 51.6225 65.542 53.6695 65.542C55.7165 65.542 57.3825 67.207 57.3825 69.254C57.3825 71.301 55.7155 72.966 53.6695 72.966Z" fill="white"/>
<path id="Vector_9" d="M79.7939 74.109L81.3429 72.56L79.5749 70.792L78.0259 72.341C77.3779 71.913 76.6459 71.601 75.8599 71.439V69.254H73.3599V71.439C72.5739 71.6 71.8419 71.913 71.1949 72.341L69.6459 70.792L67.8779 72.56L69.4259 74.108C68.9969 74.756 68.6849 75.488 68.5239 76.275H66.3389V78.775H68.5239C68.6849 79.562 68.9979 80.294 69.4269 80.942L67.8779 82.489L69.6459 84.257L71.1949 82.709C71.8429 83.138 72.5739 83.45 73.3599 83.611V85.796H75.8599V83.611C76.6469 83.449 77.3789 83.136 78.0259 82.708L79.5739 84.257L81.3419 82.489L79.7939 80.94C80.2229 80.293 80.5349 79.561 80.6959 78.775H82.8809V76.275H80.6959C80.5349 75.489 80.2219 74.757 79.7939 74.109ZM74.6099 81.237C72.5629 81.237 70.8969 79.572 70.8969 77.525C70.8969 75.478 72.5629 73.813 74.6099 73.813C76.6569 73.813 78.3229 75.478 78.3229 77.525C78.3229 79.572 76.6569 81.237 74.6099 81.237Z" fill="white"/>
<path id="Vector_10" d="M13.454 75.763L15.003 74.214L13.235 72.446L11.686 73.995C11.038 73.567 10.307 73.255 9.52 73.093V70.908H7.02V73.093C6.234 73.254 5.503 73.567 4.855 73.995L3.306 72.446L1.538 74.214L3.086 75.762C2.657 76.41 2.344 77.142 2.183 77.929H0V80.429H2.184C2.346 81.216 2.659 81.948 3.088 82.596L1.54 84.143L3.307 85.911L4.856 84.363C5.504 84.792 6.235 85.103 7.021 85.265V87.45H9.521V85.265C10.308 85.103 11.039 84.79 11.687 84.362L13.233 85.911L15.002 84.143L13.454 82.594C13.883 81.946 14.195 81.215 14.356 80.429H16.54V77.929H14.356C14.195 77.143 13.882 76.412 13.454 75.763ZM8.27 82.891C6.223 82.891 4.557 81.226 4.557 79.179C4.557 77.132 6.223 75.467 8.27 75.467C10.317 75.467 11.983 77.132 11.983 79.179C11.983 81.226 10.317 82.891 8.27 82.891Z" fill="white"/>
</g>
</svg>
