<svg width="89" height="88" viewBox="0 0 89 88" fill="none" xmlns="http://www.w3.org/2000/svg">
<path id="img-waterquality" d="M83.938 75.162V40.328H85.834V31.661H74.625V5.745H75.625V0H61.375V5.745H62.375V31.662H58.625V5.995H59.625V0H45.375V5.995H46.375V31.662H42.625V5.995H43.625V0H29.375V5.995H30.375V31.662H26.625V5.995H27.625V0H13.375V5.995H14.375V31.662H3.167V40.329H5.084V75.162H0V87.495H89V75.162H83.938ZM81.438 75.162H79.438V40.328H81.438V75.162ZM16.875 48.62H24.125V67.12C24.125 69.119 22.499 70.745 20.5 70.745C18.501 70.745 16.875 69.119 16.875 67.12V48.62ZM24.125 46.12H16.875V40.328H24.125V46.12ZM20.5 73.245C23.877 73.245 26.625 70.497 26.625 67.12V40.328H30.375V67.12C30.375 70.497 33.123 73.245 36.5 73.245C39.877 73.245 42.625 70.497 42.625 67.12V40.328H46.375V67.12C46.375 70.497 49.123 73.245 52.5 73.245C55.877 73.245 58.625 70.497 58.625 67.12V40.328H62.375V67.12C62.375 70.497 65.123 73.245 68.5 73.245C71.877 73.245 74.625 70.497 74.625 67.12V40.328H76.938V75.161H12.083V40.328H14.375V67.12C14.375 70.497 17.123 73.245 20.5 73.245ZM32.875 40.328H40.125V67.12C40.125 69.119 38.499 70.745 36.5 70.745C34.501 70.745 32.875 69.119 32.875 67.12V40.328ZM48.875 45.245H56.125V67.12C56.125 69.119 54.499 70.745 52.5 70.745C50.501 70.745 48.875 69.119 48.875 67.12V45.245ZM56.125 42.745H48.875V40.328H56.125V42.745ZM64.875 40.328H72.125V67.12C72.125 69.119 70.499 70.745 68.5 70.745C66.501 70.745 64.875 69.119 64.875 67.12V40.328ZM72.125 26.37H64.875V19.162H72.125V26.37ZM63.875 2.5H73.125V3.245H72.125V16.662H64.875V3.245H63.875V2.5ZM64.875 28.87H72.125V31.662H64.875V28.87ZM47.875 2.5H57.125V3.495H56.125V12.662H48.875V3.495H47.875V2.5ZM48.875 15.162H56.125V31.662H48.875V15.162ZM31.875 2.5H41.125V3.495H40.125V23.745H32.875V3.495H31.875V2.5ZM32.875 26.245H40.125V31.662H32.875V26.245ZM15.875 2.5H25.125V3.495H24.125V13.995H16.875V3.495H15.875V2.5ZM16.875 16.495H24.125V31.662H16.875V16.495ZM5.667 34.162H83.333V37.829H76.937H12.083H5.666L5.667 34.162ZM7.583 40.328H9.583V75.161H7.583V40.328ZM86.5 84.995H2.5V77.662H86.5V84.995Z" fill="white"/>
</svg>
