<svg width="79" height="87" viewBox="0 0 79 87" fill="none" xmlns="http://www.w3.org/2000/svg">
<g id="img-algaetreatment">
<path id="Vector" d="M10.375 0C4.654 0 0 4.654 0 10.375V75.643C0 75.643 0 76.129 0 76.375C0 82.096 4.654 86.75 10.375 86.75H78.625V0H10.375ZM2.5 76.375C2.5 72.032 6.033 68.5 10.375 68.5H70.167V70.583H34.917V73.083H70.167V75.166H54.916V77.666H70.167V79.75H44.916V82.25H70.167V84.25H10.375C6.033 84.25 2.5 80.718 2.5 76.375ZM76.125 84.25H72.667V68.5H76.125V84.25ZM76.125 66H10.375C7.229 66 4.404 67.408 2.5 69.627V10.375C2.5 6.033 6.033 2.5 10.375 2.5H10.667V42H13.167V2.5H76.125V66Z" fill="white"/>
<path id="Vector_2" d="M13.167 45.5H10.667V55.5H13.167V45.5Z" fill="white"/>
<path id="Vector_3" d="M32.417 70.583H16.417V73.083H32.417V70.583Z" fill="white"/>
<path id="Vector_4" d="M42.417 79.75H16.417V82.25H42.417V79.75Z" fill="white"/>
<path id="Vector_5" d="M52.417 75.125H16.417V77.625H52.417V75.125Z" fill="white"/>
<path id="Vector_6" d="M22.166 47.333C22.166 55.926 29.157 62.917 37.75 62.917C46.343 62.917 53.334 55.926 53.334 47.333C53.334 40.848 49.373 35.121 43.387 32.806V13.583H43.677C45.102 13.583 46.261 12.424 46.261 11C46.261 9.57599 45.102 8.41699 43.677 8.41699H31.823C30.399 8.41699 29.24 9.57599 29.24 11C29.24 12.424 30.399 13.583 31.823 13.583H32.113V32.805C26.126 35.121 22.166 40.848 22.166 47.333ZM37.75 60.417C30.958 60.417 25.361 55.213 24.729 48.583H50.77C50.139 55.213 44.543 60.417 37.75 60.417ZM33.745 34.879L34.613 34.6V31.5H37.75V29H34.613V25.5H37.75V23H34.613V19.5H37.75V17H34.613V11.083H31.823C31.777 11.083 31.74 11.045 31.74 11C31.74 10.955 31.778 10.917 31.823 10.917H43.677C43.723 10.917 43.761 10.955 43.761 11C43.761 11.045 43.723 11.083 43.677 11.083H40.887V34.6L41.754 34.879C46.784 36.495 50.279 40.909 50.769 46.083H24.731C25.221 40.909 28.716 36.495 33.745 34.879Z" fill="white"/>
<path id="Vector_7" d="M54.834 56.126C54.834 59.87 57.881 62.917 61.625 62.917C65.369 62.917 68.416 59.87 68.416 56.126V10.917H70.417V8.41699H65.916V24.75H57.334V8.41699H53.041V10.917H54.834V56.126ZM65.916 27.25V56.126C65.916 58.492 63.991 60.417 61.625 60.417C59.259 60.417 57.334 58.492 57.334 56.126V51.75H61.625V49.25H57.334V45.75H61.625V43.25H57.334V39.75H61.625V37.25H57.334V33.75H61.625V31.25H57.334V27.25H65.916Z" fill="white"/>
<path id="Vector_8" d="M5.5 76.416C5.5 79.633 8.117 82.25 11.333 82.25V79.75C9.495 79.75 8 78.254 8 76.416C8 74.578 9.496 73.083 11.333 73.083V70.583C8.117 70.583 5.5 73.199 5.5 76.416Z" fill="white"/>
</g>
</svg>
