<svg width="64" height="88" viewBox="0 0 64 88" fill="none" xmlns="http://www.w3.org/2000/svg">
<g id="img-regulatory">
<path id="Vector" d="M48.876 7.875C47.408 7.075 45.738 6.625 43.988 6.625H39.776C39.175 2.875 35.917 0 32 0C28.083 0 24.825 2.875 24.225 6.625H20.01C18.26 6.625 16.59 7.075 15.123 7.875H0V87.426H64V7.875H48.876ZM26.625 9.125V7.875C26.625 4.912 29.036 2.5 32 2.5C34.964 2.5 37.375 4.911 37.375 7.875V9.125H43.988C46.891 9.125 49.511 10.758 50.836 13.25H13.164C14.487 10.758 17.107 9.125 20.01 9.125H26.625ZM53.931 14.375H57.5V64.958H33.336V77.125H43.084V80.926H6.5V14.375H10.069L9.693 15.75H54.308L53.931 14.375ZM43.084 74.625H35.836V67.458H43.084V74.625ZM57.5 69.458V80.926H47.146L57.5 69.458ZM45.584 78.926V67.458H55.938L45.584 78.926ZM61.5 84.926H2.5V10.375H12.097C11.713 10.841 11.368 11.342 11.069 11.875H4V83.426H60V11.875H52.931C52.632 11.342 52.286 10.841 51.903 10.375H61.5V84.926Z" fill="white"/>
<path id="Vector_2" d="M53.9191 18.625H10.0811V30.502H53.9191V18.625ZM51.4191 28.002H12.5811V21.125H51.4191V28.002Z" fill="white"/>
<path id="Vector_3" d="M54.1671 52.383H11.3311V54.883H54.1671V52.383Z" fill="white"/>
<path id="Vector_4" d="M54.1671 58.383H11.3311V60.883H54.1671V58.383Z" fill="white"/>
<path id="Vector_5" d="M30.1831 74.625H11.3311V77.125H30.1831V74.625Z" fill="white"/>
<path id="Vector_6" d="M30.1831 69.625H11.3311V72.125H30.1831V69.625Z" fill="white"/>
<path id="Vector_7" d="M11.9356 50.844L27.4996 42.244V49.073L53.2516 35.48L52.0856 33.27L29.9996 44.927V38.006L10.7266 48.656L11.9356 50.844Z" fill="white"/>
<path id="Vector_8" d="M12.5811 32.75H10.0811V45.375H12.5811V32.75Z" fill="white"/>
<path id="Vector_9" d="M18.5811 32.75H16.0811V42.875H18.5811V32.75Z" fill="white"/>
<path id="Vector_10" d="M24.5811 32.75H22.0811V39.063H24.5811V32.75Z" fill="white"/>
<path id="Vector_11" d="M53.9189 39.063H51.4189V49.751H53.9189V39.063Z" fill="white"/>
<path id="Vector_12" d="M47.9189 40.875H45.4189V49.75H47.9189V40.875Z" fill="white"/>
<path id="Vector_13" d="M41.9189 43.875H39.4189V49.75H41.9189V43.875Z" fill="white"/>
</g>
</svg>
