<svg width="272" height="68" viewBox="0 0 272 68" fill="none" xmlns="http://www.w3.org/2000/svg">
<line x1="4.5" y1="121" x2="4.5" y2="57" stroke="white" stroke-width="3"/>
<line x1="4.5" y1="121" x2="4.5" y2="57" stroke="white" stroke-width="3"/>
<line x1="4.5" y1="121" x2="4.5" y2="57" stroke="white" stroke-width="3"/>
<line x1="14.5" y1="113" x2="14.5" y2="49" stroke="white" stroke-width="3"/>
<line x1="14.5" y1="113" x2="14.5" y2="49" stroke="white" stroke-width="3"/>
<line x1="14.5" y1="113" x2="14.5" y2="49" stroke="white" stroke-width="3"/>
<line x1="24.5" y1="103" x2="24.5" y2="39" stroke="white" stroke-width="3"/>
<line x1="24.5" y1="103" x2="24.5" y2="39" stroke="white" stroke-width="3"/>
<line x1="24.5" y1="103" x2="24.5" y2="39" stroke="white" stroke-width="3"/>
<line x1="34.5" y1="106" x2="34.5" y2="42" stroke="white" stroke-width="3"/>
<line x1="34.5" y1="106" x2="34.5" y2="42" stroke="white" stroke-width="3"/>
<line x1="34.5" y1="106" x2="34.5" y2="42" stroke="white" stroke-width="3"/>
<line x1="44.5" y1="106" x2="44.5" y2="42" stroke="white" stroke-width="3"/>
<line x1="44.5" y1="106" x2="44.5" y2="42" stroke="white" stroke-width="3"/>
<line x1="44.5" y1="106" x2="44.5" y2="42" stroke="white" stroke-width="3"/>
<line x1="54.5" y1="106" x2="54.5" y2="42" stroke="white" stroke-width="3"/>
<line x1="54.5" y1="106" x2="54.5" y2="42" stroke="white" stroke-width="3"/>
<line x1="54.5" y1="106" x2="54.5" y2="42" stroke="white" stroke-width="3"/>
<line x1="64.5" y1="106" x2="64.5" y2="42" stroke="white" stroke-width="3"/>
<line x1="64.5" y1="106" x2="64.5" y2="42" stroke="white" stroke-width="3"/>
<line x1="64.5" y1="106" x2="64.5" y2="42" stroke="white" stroke-width="3"/>
<line x1="74.5" y1="113" x2="74.5" y2="49" stroke="white" stroke-width="3"/>
<line x1="74.5" y1="113" x2="74.5" y2="49" stroke="white" stroke-width="3"/>
<line x1="74.5" y1="113" x2="74.5" y2="49" stroke="white" stroke-width="3"/>
<line x1="84.5" y1="120" x2="84.5" y2="56" stroke="white" stroke-width="3"/>
<line x1="84.5" y1="120" x2="84.5" y2="56" stroke="white" stroke-width="3"/>
<line x1="84.5" y1="120" x2="84.5" y2="56" stroke="white" stroke-width="3"/>
<line x1="94.5" y1="130" x2="94.5" y2="66" stroke="white" stroke-width="3"/>
<line x1="94.5" y1="130" x2="94.5" y2="66" stroke="white" stroke-width="3"/>
<line x1="94.5" y1="130" x2="94.5" y2="66" stroke="white" stroke-width="3"/>
<line x1="104.5" y1="120" x2="104.5" y2="56" stroke="white" stroke-width="3"/>
<line x1="104.5" y1="120" x2="104.5" y2="56" stroke="white" stroke-width="3"/>
<line x1="104.5" y1="120" x2="104.5" y2="56" stroke="white" stroke-width="3"/>
<line x1="114.5" y1="113" x2="114.5" y2="49" stroke="white" stroke-width="3"/>
<line x1="114.5" y1="113" x2="114.5" y2="49" stroke="white" stroke-width="3"/>
<line x1="114.5" y1="113" x2="114.5" y2="49" stroke="white" stroke-width="3"/>
<line x1="124.5" y1="106" x2="124.5" y2="42" stroke="white" stroke-width="3"/>
<line x1="124.5" y1="106" x2="124.5" y2="42" stroke="white" stroke-width="3"/>
<line x1="124.5" y1="106" x2="124.5" y2="42" stroke="white" stroke-width="3"/>
<line x1="134.5" y1="99" x2="134.5" y2="35" stroke="white" stroke-width="3"/>
<line x1="134.5" y1="99" x2="134.5" y2="35" stroke="white" stroke-width="3"/>
<line x1="134.5" y1="99" x2="134.5" y2="35" stroke="white" stroke-width="3"/>
<line x1="144.5" y1="92" x2="144.5" y2="28" stroke="white" stroke-width="3"/>
<line x1="144.5" y1="92" x2="144.5" y2="28" stroke="white" stroke-width="3"/>
<line x1="144.5" y1="92" x2="144.5" y2="28" stroke="white" stroke-width="3"/>
<line x1="154.5" y1="85" x2="154.5" y2="21" stroke="white" stroke-width="3"/>
<line x1="154.5" y1="85" x2="154.5" y2="21" stroke="white" stroke-width="3"/>
<line x1="154.5" y1="85" x2="154.5" y2="21" stroke="white" stroke-width="3"/>
<line x1="164.5" y1="85" x2="164.5" y2="21" stroke="white" stroke-width="3"/>
<line x1="164.5" y1="85" x2="164.5" y2="21" stroke="white" stroke-width="3"/>
<line x1="164.5" y1="85" x2="164.5" y2="21" stroke="white" stroke-width="3"/>
<line x1="174.5" y1="85" x2="174.5" y2="21" stroke="white" stroke-width="3"/>
<line x1="174.5" y1="85" x2="174.5" y2="21" stroke="white" stroke-width="3"/>
<line x1="174.5" y1="85" x2="174.5" y2="21" stroke="white" stroke-width="3"/>
<line x1="184.5" y1="85" x2="184.5" y2="21" stroke="white" stroke-width="3"/>
<line x1="184.5" y1="85" x2="184.5" y2="21" stroke="white" stroke-width="3"/>
<line x1="184.5" y1="85" x2="184.5" y2="21" stroke="white" stroke-width="3"/>
<line x1="194.5" y1="92" x2="194.5" y2="28" stroke="white" stroke-width="3"/>
<line x1="194.5" y1="92" x2="194.5" y2="28" stroke="white" stroke-width="3"/>
<line x1="194.5" y1="92" x2="194.5" y2="28" stroke="white" stroke-width="3"/>
<line x1="204.5" y1="99" x2="204.5" y2="35" stroke="white" stroke-width="3"/>
<line x1="204.5" y1="99" x2="204.5" y2="35" stroke="white" stroke-width="3"/>
<line x1="204.5" y1="99" x2="204.5" y2="35" stroke="white" stroke-width="3"/>
<line x1="214.5" y1="99" x2="214.5" y2="35" stroke="white" stroke-width="3"/>
<line x1="214.5" y1="99" x2="214.5" y2="35" stroke="white" stroke-width="3"/>
<line x1="214.5" y1="99" x2="214.5" y2="35" stroke="white" stroke-width="3"/>
<line x1="224.5" y1="92" x2="224.5" y2="28" stroke="white" stroke-width="3"/>
<line x1="224.5" y1="92" x2="224.5" y2="28" stroke="white" stroke-width="3"/>
<line x1="224.5" y1="92" x2="224.5" y2="28" stroke="white" stroke-width="3"/>
<line x1="234.5" y1="85" x2="234.5" y2="21" stroke="white" stroke-width="3"/>
<line x1="234.5" y1="85" x2="234.5" y2="21" stroke="white" stroke-width="3"/>
<line x1="234.5" y1="85" x2="234.5" y2="21" stroke="white" stroke-width="3"/>
<line x1="244.5" y1="78" x2="244.5" y2="14" stroke="white" stroke-width="3"/>
<line x1="244.5" y1="78" x2="244.5" y2="14" stroke="white" stroke-width="3"/>
<line x1="244.5" y1="78" x2="244.5" y2="14" stroke="white" stroke-width="3"/>
<line x1="254.5" y1="71" x2="254.5" y2="7" stroke="white" stroke-width="3"/>
<line x1="254.5" y1="71" x2="254.5" y2="7" stroke="white" stroke-width="3"/>
<line x1="254.5" y1="71" x2="254.5" y2="7" stroke="white" stroke-width="3"/>
<line x1="264.5" y1="64" x2="264.5" y2="4.5967e-08" stroke="white" stroke-width="3"/>
<line x1="264.5" y1="64" x2="264.5" y2="4.5967e-08" stroke="white" stroke-width="3"/>
<line x1="264.5" y1="64" x2="264.5" y2="4.5967e-08" stroke="white" stroke-width="3"/>
<line x1="23" y1="124" x2="23" y2="60" stroke="white" stroke-width="6"/>
<line x1="23" y1="124" x2="23" y2="60" stroke="white" stroke-width="6"/>
<line x1="23" y1="124" x2="23" y2="60" stroke="white" stroke-width="6"/>
<line x1="33" y1="127" x2="33" y2="63" stroke="white" stroke-width="6"/>
<line x1="33" y1="127" x2="33" y2="63" stroke="white" stroke-width="6"/>
<line x1="33" y1="127" x2="33" y2="63" stroke="white" stroke-width="6"/>
<line x1="43" y1="127" x2="43" y2="63" stroke="white" stroke-width="6"/>
<line x1="43" y1="127" x2="43" y2="63" stroke="white" stroke-width="6"/>
<line x1="43" y1="127" x2="43" y2="63" stroke="white" stroke-width="6"/>
<line x1="53" y1="127" x2="53" y2="63" stroke="white" stroke-width="6"/>
<line x1="53" y1="127" x2="53" y2="63" stroke="white" stroke-width="6"/>
<line x1="53" y1="127" x2="53" y2="63" stroke="white" stroke-width="6"/>
<line x1="63" y1="127" x2="63" y2="63" stroke="white" stroke-width="6"/>
<line x1="63" y1="127" x2="63" y2="63" stroke="white" stroke-width="6"/>
<line x1="63" y1="127" x2="63" y2="63" stroke="white" stroke-width="6"/>
<line x1="123" y1="127" x2="123" y2="63" stroke="white" stroke-width="6"/>
<line x1="123" y1="127" x2="123" y2="63" stroke="white" stroke-width="6"/>
<line x1="123" y1="127" x2="123" y2="63" stroke="white" stroke-width="6"/>
<line x1="133" y1="120" x2="133" y2="56" stroke="white" stroke-width="6"/>
<line x1="133" y1="120" x2="133" y2="56" stroke="white" stroke-width="6"/>
<line x1="133" y1="120" x2="133" y2="56" stroke="white" stroke-width="6"/>
<line x1="143" y1="113" x2="143" y2="49" stroke="white" stroke-width="6"/>
<line x1="143" y1="113" x2="143" y2="49" stroke="white" stroke-width="6"/>
<line x1="143" y1="113" x2="143" y2="49" stroke="white" stroke-width="6"/>
<line x1="153" y1="106" x2="153" y2="42" stroke="white" stroke-width="6"/>
<line x1="153" y1="106" x2="153" y2="42" stroke="white" stroke-width="6"/>
<line x1="153" y1="106" x2="153" y2="42" stroke="white" stroke-width="6"/>
<line x1="163" y1="106" x2="163" y2="42" stroke="white" stroke-width="6"/>
<line x1="163" y1="106" x2="163" y2="42" stroke="white" stroke-width="6"/>
<line x1="163" y1="106" x2="163" y2="42" stroke="white" stroke-width="6"/>
<line x1="173" y1="106" x2="173" y2="42" stroke="white" stroke-width="6"/>
<line x1="173" y1="106" x2="173" y2="42" stroke="white" stroke-width="6"/>
<line x1="173" y1="106" x2="173" y2="42" stroke="white" stroke-width="6"/>
<line x1="183" y1="106" x2="183" y2="42" stroke="white" stroke-width="6"/>
<line x1="183" y1="106" x2="183" y2="42" stroke="white" stroke-width="6"/>
<line x1="183" y1="106" x2="183" y2="42" stroke="white" stroke-width="6"/>
<line x1="193" y1="113" x2="193" y2="49" stroke="white" stroke-width="6"/>
<line x1="193" y1="113" x2="193" y2="49" stroke="white" stroke-width="6"/>
<line x1="193" y1="113" x2="193" y2="49" stroke="white" stroke-width="6"/>
<line x1="203" y1="120" x2="203" y2="56" stroke="white" stroke-width="6"/>
<line x1="203" y1="120" x2="203" y2="56" stroke="white" stroke-width="6"/>
<line x1="203" y1="120" x2="203" y2="56" stroke="white" stroke-width="6"/>
<line x1="213" y1="120" x2="213" y2="56" stroke="white" stroke-width="6"/>
<line x1="213" y1="120" x2="213" y2="56" stroke="white" stroke-width="6"/>
<line x1="213" y1="120" x2="213" y2="56" stroke="white" stroke-width="6"/>
<line x1="223" y1="113" x2="223" y2="49" stroke="white" stroke-width="6"/>
<line x1="223" y1="113" x2="223" y2="49" stroke="white" stroke-width="6"/>
<line x1="223" y1="113" x2="223" y2="49" stroke="white" stroke-width="6"/>
<line x1="233" y1="106" x2="233" y2="42" stroke="white" stroke-width="6"/>
<line x1="233" y1="106" x2="233" y2="42" stroke="white" stroke-width="6"/>
<line x1="233" y1="106" x2="233" y2="42" stroke="white" stroke-width="6"/>
<line x1="243" y1="99" x2="243" y2="35" stroke="white" stroke-width="6"/>
<line x1="243" y1="99" x2="243" y2="35" stroke="white" stroke-width="6"/>
<line x1="243" y1="99" x2="243" y2="35" stroke="white" stroke-width="6"/>
<line x1="253" y1="92" x2="253" y2="28" stroke="white" stroke-width="6"/>
<line x1="253" y1="92" x2="253" y2="28" stroke="white" stroke-width="6"/>
<line x1="253" y1="92" x2="253" y2="28" stroke="white" stroke-width="6"/>
<line x1="263" y1="85" x2="263" y2="21" stroke="white" stroke-width="6"/>
<line x1="263" y1="85" x2="263" y2="21" stroke="white" stroke-width="6"/>
<line x1="263" y1="85" x2="263" y2="21" stroke="white" stroke-width="6"/>
<line x1="273" y1="78" x2="273" y2="14" stroke="white" stroke-width="6"/>
<line x1="273" y1="78" x2="273" y2="14" stroke="white" stroke-width="6"/>
<line x1="273" y1="78" x2="273" y2="14" stroke="white" stroke-width="6"/>
</svg>
